<?xml version="1.0" encoding="utf-8"?>
<!-- Generator: Adobe Illustrator 25.0.0, SVG Export Plug-In . SVG Version: 6.00 Build 0)  -->
<svg version="1.1" id="Layer_1" xmlns="http://www.w3.org/2000/svg" xmlns:xlink="http://www.w3.org/1999/xlink" x="0px" y="0px"
	 viewBox="0 0 1024 1024" style="enable-background:new 0 0 1024 1024;" xml:space="preserve">
<style type="text/css">
	.st0{fill:#663399;}
	.st1{fill:#FFFFFF;}
</style>
<circle class="st0" cx="512" cy="512" r="512"/>
<g id="layer101">
	<path class="st1" d="M305.1,933.5c-8.3-0.5-18-1.6-21.3-2.5c-22.4-5.7-37.3-24.6-44.1-56c-2.5-11.6-2.5-15.2,1.2-150
		c1.7-59.4,3-111.8,3-116.5V600l-11.8-3.8c-35.5-11.4-64.5-30.4-80.7-53.1c-6.3-8.8-13-23.5-15.7-34.2c-3.2-12.9-3.2-35.5,0-50.9
		c7.2-33.6,22.9-67.5,42.3-91c17.7-21.5,42.8-39.5,67.2-48l7.7-2.8v-49.6c0-44.8,0.2-50.5,1.9-58.8c2-9.8,6.9-22,12.1-30.7
		c10.7-17.6,32.9-36.2,57.5-48.1c23.2-11.2,41.5-15.4,80-18.4c78.8-6.2,331-21.6,339.4-20.7c7.3,0.7,17.1,5.6,21.6,10.8
		c4.9,5.8,7.4,13.1,8,24c0.3,5.1,1.2,28.6,2,52.2s1.7,43.1,1.9,43.4c0.3,0.2,4.2,0.8,8.8,1.3c37.6,4,67,17.8,82.7,38.6
		c12.4,16.5,20.5,40.1,21.8,63.3c1.1,19.8-2.9,37.7-12.7,57.5c-7.1,14.3-15.8,26.1-27.1,37l-8.4,8l-28.9,10.5
		c-15.9,5.8-29.1,11-29.3,11.7c-0.3,0.7,3.2,49.3,7.6,108c4.5,58.7,8.1,110.7,8.1,115.5c0,17.2-9.1,59.9-18.8,88.8
		c-10.8,32-22.2,55-39.2,79.3c-8,11.4-29.9,33.4-40.2,40.5c-41,28-123.9,44.8-257.3,52.2C419.1,933.9,324.4,934.6,305.1,933.5z
		 M456.4,900.1c100.9-6.3,170.3-18.3,209.6-36.3l7.6-3.4l-3.4-11.7c-14-48.2-13.2-95.6,2.4-133.1c4.5-11.1,9-17.8,18.8-27.9
		c17.3-18.1,41.7-29.6,68-32l8-0.7l-0.2-3.5c-2.6-36.1-14.6-191.6-14.9-191.9c-0.4-0.5-17.1,5.8-83.9,31.4
		c-74.5,28.6-121.9,47.6-171.5,68.7C428.3,589,385.5,602.1,339.4,608c-15.9,2.1-42.6,2.2-54.7,0.2c-4.9-0.7-8.8-1.1-8.8-0.8
		s-1.6,57.1-3.5,126.1c-3,112.3-3.2,126.3-2,133c3.1,16.4,9.8,29,17,32.4c2.4,1.2,7.8,2.1,14.9,2.6
		C320.4,902.8,428.1,901.8,456.4,900.1z M705.5,834.3c26-28.4,48.1-78.9,58.8-134.3c2.6-13.7,2.7-13-1.9-12.7
		c-14,1.1-32.8,8.4-42.3,16.6c-14.3,12.3-21,25-25.9,49.4c-2.4,12-2.4,43.6,0,57.7c2.4,13.9,5.7,27.5,6.7,27.5
		C701.3,838.5,703.4,836.6,705.5,834.3z M326.4,577.5c26.6-2.5,55.5-9,88.5-20c23.1-7.7,34.8-12.2,72.9-28.4
		c52.5-22.3,116.4-47.7,200.1-79.6c38.6-14.7,130.8-48.9,135.7-50.4c2.8-0.9,14-12.8,19.3-20.7c19.1-28.1,21.1-59.5,5.8-90.7
		c-9.3-18.9-31.2-30.5-65.7-34.7l-5.4-0.6l0.7,16.4l0.7,16.4l-15.7,0.7c-8.6,0.4-15.7,0.6-15.9,0.4c-0.2-0.2-1.2-30.2-2.4-66.8
		c-1.2-36.6-2.4-73.6-2.8-82.2l-0.6-15.8h-4.2c-8.7,0-219.4,12.9-287,17.5c-68.9,4.8-80.1,6.2-98.4,12.7
		c-27.9,9.8-52.1,29-61.3,48.5c-6.6,13.8-6.2,7.1-6.5,115.6l-0.4,98.7h-15.4h-15.5v-32c0-22.4-0.3-32-1.1-32c-2.5,0-19,9.4-27,15.4
		c-23.3,17.6-40.8,43.3-51.8,76.2c-15.5,46.5-8.6,77.4,22.4,100.7c21.6,16.1,55.2,28.6,89.5,33.2c6.9,0.9,13.2,1.8,14,2
		C302.3,578.7,316.1,578.4,326.4,577.5z"/>
</g>
</svg>
