<?xml version="1.0" encoding="utf-8"?>
<!-- Generator: Adobe Illustrator 25.0.0, SVG Export Plug-In . SVG Version: 6.00 Build 0)  -->
<svg version="1.1" id="Layer_1" xmlns="http://www.w3.org/2000/svg" xmlns:xlink="http://www.w3.org/1999/xlink" x="0px" y="0px"
	 viewBox="0 0 350 350" style="enable-background:new 0 0 350 350;" xml:space="preserve">
<style type="text/css">
	.st0{fill:#663399;}
	.st1{fill:#FFFFFF;}
</style>
<circle class="st0" cx="175" cy="175" r="175"/>
<g id="layer101">
	<path class="st1" d="M104.3,319.1c-2.8-0.2-6.2-0.5-7.3-0.9c-7.7-1.9-12.7-8.4-15.1-19.1c-0.9-4-0.9-5.2,0.4-51.3
		c0.6-20.3,1-38.2,1-39.8v-2.9l-4-1.3c-12.1-3.9-22-10.4-27.6-18.1c-2.2-3-4.4-8-5.4-11.7c-1.1-4.4-1.1-12.1,0-17.4
		c2.5-11.5,7.8-23.1,14.5-31.1c6-7.3,14.6-13.5,23-16.4l2.6-1v-17c0-15.3,0.1-17.3,0.6-20.1c0.7-3.3,2.4-7.5,4.1-10.5
		c3.7-6,11.2-12.4,19.7-16.4c7.9-3.8,14.2-5.3,27.3-6.3c26.9-2.1,113.1-7.4,116-7.1c2.5,0.2,5.8,1.9,7.4,3.7c1.7,2,2.5,4.5,2.7,8.2
		c0.1,1.7,0.4,9.8,0.7,17.8c0.3,8.1,0.6,14.7,0.6,14.8c0.1,0.1,1.4,0.3,3,0.4c12.9,1.4,22.9,6.1,28.3,13.2c4.2,5.6,7,13.7,7.5,21.6
		c0.4,6.8-1,12.9-4.3,19.7c-2.4,4.9-5.4,8.9-9.3,12.6l-2.9,2.7l-9.9,3.6c-5.4,2-9.9,3.8-10,4c-0.1,0.2,1.1,16.9,2.6,36.9
		c1.5,20.1,2.8,37.8,2.8,39.5c0,5.9-3.1,20.5-6.4,30.4c-3.7,10.9-7.6,18.8-13.4,27.1c-2.7,3.9-10.2,11.4-13.7,13.8
		c-14,9.6-42.3,15.3-87.9,17.8C143.2,319.2,110.9,319.4,104.3,319.1z M156,307.7c34.5-2.2,58.2-6.3,71.6-12.4l2.6-1.2l-1.2-4
		c-4.8-16.5-4.5-32.7,0.8-45.5c1.5-3.8,3.1-6.1,6.4-9.5c5.9-6.2,14.3-10.1,23.2-10.9l2.7-0.2l-0.1-1.2c-0.9-12.3-5-65.5-5.1-65.6
		c-0.1-0.2-5.8,2-28.7,10.7c-25.5,9.8-41.7,16.3-58.6,23.5c-23.4,10-38.1,14.5-53.8,16.5c-5.4,0.7-14.6,0.8-18.7,0.1
		c-1.7-0.2-3-0.4-3-0.3c0,0.1-0.5,19.5-1.2,43.1c-1,38.4-1.1,43.2-0.7,45.5c1.1,5.6,3.3,9.9,5.8,11.1c0.8,0.4,2.7,0.7,5.1,0.9
		C109.5,308.6,146.3,308.2,156,307.7z M241.1,285.2c8.9-9.7,16.4-27,20.1-45.9c0.9-4.7,0.9-4.4-0.6-4.3c-4.8,0.4-11.2,2.9-14.5,5.7
		c-4.9,4.2-7.2,8.5-8.9,16.9c-0.8,4.1-0.8,14.9,0,19.7c0.8,4.8,1.9,9.4,2.3,9.4C239.7,286.6,240.4,285.9,241.1,285.2z M111.6,197.4
		c9.1-0.9,19-3.1,30.2-6.8c7.9-2.6,11.9-4.2,24.9-9.7c17.9-7.6,39.8-16.3,68.4-27.2c13.2-5,44.7-16.7,46.4-17.2
		c1-0.3,4.8-4.4,6.6-7.1c6.5-9.6,7.2-20.3,2-31c-3.2-6.5-10.7-10.4-22.5-11.9l-1.8-0.2l0.2,5.6l0.2,5.6l-5.4,0.2
		c-2.9,0.1-5.4,0.2-5.4,0.1c-0.1-0.1-0.4-10.3-0.8-22.8c-0.4-12.5-0.8-25.2-1-28.1l-0.2-5.4H252c-3,0-75,4.4-98.1,6
		c-23.5,1.6-27.4,2.1-33.6,4.3c-9.5,3.3-17.8,9.9-21,16.6c-2.3,4.7-2.1,2.4-2.2,39.5L97,141.7h-5.3h-5.3v-10.9
		c0-7.7-0.1-10.9-0.4-10.9c-0.9,0-6.5,3.2-9.2,5.3c-8,6-13.9,14.8-17.7,26c-5.3,15.9-2.9,26.5,7.7,34.4c7.4,5.5,18.9,9.8,30.6,11.3
		c2.4,0.3,4.5,0.6,4.8,0.7C103.3,197.8,108,197.7,111.6,197.4z"/>
</g>
<circle class="st0" cx="-1538.9" cy="-144.1" r="512"/>
<g id="layer101_1_">
	<path class="st1" d="M-1745.8,277.4c-8.3-0.5-18-1.6-21.3-2.5c-22.4-5.7-37.3-24.6-44.1-56c-2.5-11.6-2.5-15.2,1.2-150
		c1.7-59.4,3-111.8,3-116.5v-8.5l-11.8-3.8c-35.5-11.4-64.5-30.4-80.7-53.1c-6.3-8.8-13-23.5-15.7-34.2c-3.2-12.9-3.2-35.5,0-50.9
		c7.2-33.6,22.9-67.5,42.3-91c17.7-21.5,42.8-39.5,67.2-48l7.7-2.8v-49.6c0-44.8,0.2-50.5,1.9-58.8c2-9.8,6.9-22,12.1-30.7
		c10.7-17.6,32.9-36.2,57.5-48.1c23.2-11.2,41.5-15.4,80-18.4c78.8-6.2,331-21.6,339.4-20.7c7.3,0.7,17.1,5.6,21.6,10.8
		c4.9,5.8,7.4,13.1,8,24c0.3,5.1,1.2,28.6,2,52.2c0.8,23.6,1.7,43.1,1.9,43.4c0.3,0.2,4.2,0.8,8.8,1.3c37.6,4,67,17.8,82.7,38.6
		c12.4,16.5,20.5,40.1,21.8,63.3c1.1,19.8-2.9,37.7-12.7,57.5c-7.1,14.3-15.8,26.1-27.1,37l-8.4,8l-28.9,10.5
		c-15.9,5.8-29.1,11-29.3,11.7c-0.3,0.7,3.2,49.3,7.6,108c4.5,58.7,8.1,110.7,8.1,115.5c0,17.2-9.1,59.9-18.8,88.8
		c-10.8,32-22.2,55-39.2,79.3c-8,11.4-29.9,33.4-40.2,40.5c-41,28-123.9,44.8-257.3,52.2C-1631.8,277.8-1726.5,278.5-1745.8,277.4z
		 M-1594.5,244c100.9-6.3,170.3-18.3,209.6-36.3l7.6-3.4l-3.4-11.7c-14-48.2-13.2-95.6,2.4-133.1c4.5-11.1,9-17.8,18.8-27.9
		c17.3-18.1,41.7-29.6,68-32l8-0.7l-0.2-3.5c-2.6-36.1-14.6-191.6-14.9-191.9c-0.4-0.5-17.1,5.8-83.9,31.4
		c-74.5,28.6-121.9,47.6-171.5,68.7c-68.6,29.3-111.4,42.4-157.5,48.3c-15.9,2.1-42.6,2.2-54.7,0.2c-4.9-0.7-8.8-1.1-8.8-0.8
		s-1.6,57.1-3.5,126.1c-3,112.3-3.2,126.3-2,133c3.1,16.4,9.8,29,17,32.4c2.4,1.2,7.8,2.1,14.9,2.6
		C-1730.5,246.7-1622.8,245.7-1594.5,244z M-1345.4,178.2c26-28.4,48.1-78.9,58.8-134.3c2.6-13.7,2.7-13-1.9-12.7
		c-14,1.1-32.8,8.4-42.3,16.6c-14.3,12.3-21,25-25.9,49.4c-2.4,12-2.4,43.6,0,57.7c2.4,13.9,5.7,27.5,6.7,27.5
		C-1349.6,182.4-1347.5,180.5-1345.4,178.2z M-1724.5-78.6c26.6-2.5,55.5-9,88.5-20c23.1-7.7,34.8-12.2,72.9-28.4
		c52.5-22.3,116.4-47.7,200.1-79.6c38.6-14.7,130.8-48.9,135.7-50.4c2.8-0.9,14-12.8,19.3-20.7c19.1-28.1,21.1-59.5,5.8-90.7
		c-9.3-18.9-31.2-30.5-65.7-34.7l-5.4-0.6l0.7,16.4l0.7,16.4l-15.7,0.7c-8.6,0.4-15.7,0.6-15.9,0.4c-0.2-0.2-1.2-30.2-2.4-66.8
		c-1.2-36.6-2.4-73.6-2.8-82.2l-0.6-15.8h-4.2c-8.7,0-219.4,12.9-287,17.5c-68.9,4.8-80.1,6.2-98.4,12.7
		c-27.9,9.8-52.1,29-61.3,48.5c-6.6,13.8-6.2,7.1-6.5,115.6l-0.4,98.7h-15.4h-15.5v-32c0-22.4-0.3-32-1.1-32c-2.5,0-19,9.4-27,15.4
		c-23.3,17.6-40.8,43.3-51.8,76.2c-15.5,46.5-8.6,77.4,22.4,100.7c21.6,16.1,55.2,28.6,89.5,33.2c6.9,0.9,13.2,1.8,14,2
		C-1748.6-77.4-1734.8-77.7-1724.5-78.6z"/>
</g>
</svg>
